# xmcd
#
# Track frame offsets: 
#        150
#        19193
#        35673
#        57930
#        77700
#        108990
#        126698
#        141450
#        160036
#        176238
#        194256
#
# Disc length: 2851 seconds
#
# Revision: 0
# Processed by: cddbd v1.5.2PL0 Copyright (c) Steve Scherf et al.
# Submitted via: ExactAudioCopy v0.99pb4
#
DISCID=9f0b210b
DTITLE=Teeny Tucker  - Keep the Blues Alive
DYEAR=2010
DGENRE=Blues
TTITLE0=Ain't That the Blues
TTITLE1=Make Room For Teeny
TTITLE2=Daughter To the Blues
TTITLE3=Old Man Magnet
TTITLE4=I Wish We Could Go Back
TTITLE5=Keep the Blues Alive
TTITLE6=I Live Alone
TTITLE7=John Cephas
TTITLE8=Heartbreak
TTITLE9=I Got My Mojo Workin'
TTITLE10=Respect Me and the Blues
EXTD=
EXTT0=
EXTT1=
EXTT2=
EXTT3=
EXTT4=
EXTT5=
EXTT6=
EXTT7=
EXTT8=
EXTT9=
EXTT10=
PLAYORDER=
